<svg width="18" height="18" viewBox="0 0 18 18" fill="none" xmlns="http://www.w3.org/2000/svg">
<g clip-path="url(#clip0_1_393)">
<path d="M17.627 3.41621C17.3949 2.81855 17.0855 2.3123 16.5793 1.80605C16.073 1.2998 15.5668 0.990429 14.9691 0.758398C14.3926 0.533398 13.7246 0.37871 12.7613 0.336523C11.791 0.294335 11.4816 0.280273 9.00664 0.280273C6.53164 0.280273 6.22227 0.287304 5.25195 0.336523C4.28164 0.37871 3.6207 0.533398 3.04414 0.758398C2.44649 0.990429 1.94023 1.2998 1.43398 1.80605C0.927734 2.3123 0.61836 2.81855 0.386328 3.41621C0.161328 3.99277 0.00664085 4.66074 -0.0355467 5.62402C-0.0777342 6.59434 -0.0917969 6.90371 -0.0917969 9.37871C-0.0917969 11.8537 -0.0847654 12.1631 -0.0355467 13.1334C0.00664085 14.1037 0.161328 14.7646 0.386328 15.3412C0.61836 15.9389 0.927734 16.4451 1.43398 16.9514C1.94023 17.4576 2.44649 17.767 3.04414 17.999C3.6207 18.224 4.28867 18.3787 5.25195 18.4209C6.22227 18.4631 6.53164 18.4771 9.00664 18.4771C11.4816 18.4771 11.791 18.4701 12.7613 18.4209C13.7316 18.3787 14.3926 18.224 14.9691 17.999C15.5668 17.767 16.073 17.4576 16.5793 16.9514C17.0855 16.4451 17.3949 15.9389 17.627 15.3412C17.852 14.7646 18.0066 14.0967 18.0488 13.1334C18.091 12.1631 18.1051 11.8537 18.1051 9.37871C18.1051 6.90371 18.098 6.59434 18.0488 5.62402C18.0066 4.65371 17.852 3.99277 17.627 3.41621ZM16.4105 13.0561C16.3684 13.942 16.2207 14.4271 16.0941 14.7436C15.9324 15.1654 15.7285 15.4748 15.4121 15.7912C15.0957 16.1076 14.7934 16.3045 14.3645 16.4732C14.041 16.5998 13.5629 16.7475 12.677 16.7896C11.7137 16.8318 11.4324 16.8459 8.99961 16.8459C6.5668 16.8459 6.27852 16.8389 5.32227 16.7896C4.43633 16.7475 3.95117 16.5998 3.63477 16.4732C3.21289 16.3115 2.90352 16.1076 2.58711 15.7912C2.2707 15.4748 2.07383 15.1725 1.90508 14.7436C1.77852 14.4201 1.63086 13.942 1.58867 13.0561C1.54649 12.0928 1.53242 11.8045 1.53242 9.37871C1.53242 6.95293 1.53945 6.65762 1.58867 5.70137C1.63086 4.81543 1.77852 4.33027 1.90508 4.01387C2.0668 3.59199 2.2707 3.28262 2.58711 2.96621C2.90352 2.6498 3.20586 2.45293 3.63477 2.28418C3.9582 2.15762 4.43633 2.00996 5.32227 1.96777C6.28555 1.92559 6.57383 1.91152 8.99961 1.91152C11.4254 1.91152 11.7207 1.91855 12.677 1.96777C13.5629 2.00996 14.048 2.15762 14.3645 2.28418C14.7863 2.4459 15.0957 2.6498 15.4121 2.96621C15.7285 3.28262 15.9254 3.58496 16.0941 4.01387C16.2207 4.33731 16.3684 4.81543 16.4105 5.70137C16.4527 6.66465 16.4668 6.95293 16.4668 9.37871C16.4668 11.8045 16.4527 12.0998 16.4105 13.0561Z" fill="url(#paint0_radial_1_393)"/>
<path d="M8.99979 4.70301C6.41932 4.70301 4.32401 6.79832 4.32401 9.37879C4.32401 11.9593 6.41932 14.0546 8.99979 14.0546C11.5803 14.0546 13.6756 11.9593 13.6756 9.37879C13.6756 6.79832 11.5803 4.70301 8.99979 4.70301ZM8.99979 12.4163C7.32635 12.4163 5.96229 11.0593 5.96229 9.37879C5.96229 7.70535 7.31932 6.34129 8.99979 6.34129C10.6803 6.34129 12.0373 7.69832 12.0373 9.37879C12.0373 11.0522 10.6732 12.4163 8.99979 12.4163Z" fill="url(#paint1_radial_1_393)"/>
<path d="M13.8579 5.60991C14.4598 5.60991 14.9477 5.12197 14.9477 4.52006C14.9477 3.91816 14.4598 3.43022 13.8579 3.43022C13.256 3.43022 12.768 3.91816 12.768 4.52006C12.768 5.12197 13.256 5.60991 13.8579 5.60991Z" fill="url(#paint2_radial_1_393)"/>
</g>
<defs>
<radialGradient id="paint0_radial_1_393" cx="0" cy="0" r="1" gradientUnits="userSpaceOnUse" gradientTransform="translate(5.18682 18.4391) scale(18.3592 18.3592)">
<stop stop-color="#FFD776"/>
<stop offset="0.2463" stop-color="#F3A554"/>
<stop offset="0.3793" stop-color="#F15C3C"/>
<stop offset="0.5394" stop-color="#D94867"/>
<stop offset="0.6995" stop-color="#C32F87"/>
<stop offset="0.9122" stop-color="#7D63A7"/>
<stop offset="0.9852" stop-color="#5C6CB3"/>
</radialGradient>
<radialGradient id="paint1_radial_1_393" cx="0" cy="0" r="1" gradientUnits="userSpaceOnUse" gradientTransform="translate(7.04187 14.0313) scale(9.4277)">
<stop stop-color="#FFD776"/>
<stop offset="0.2463" stop-color="#F3A554"/>
<stop offset="0.3793" stop-color="#F15C3C"/>
<stop offset="0.607" stop-color="#D94867"/>
<stop offset="0.8346" stop-color="#C32F87"/>
<stop offset="0.9577" stop-color="#7D63A7"/>
<stop offset="1" stop-color="#5C6CB3"/>
</radialGradient>
<radialGradient id="paint2_radial_1_393" cx="0" cy="0" r="1" gradientUnits="userSpaceOnUse" gradientTransform="translate(13.4024 5.60501) scale(2.2031 2.2031)">
<stop stop-color="#5F6DB3"/>
<stop offset="1" stop-color="#5C6CB3"/>
</radialGradient>
<clipPath id="clip0_1_393">
<rect width="18" height="18" fill="white"/>
</clipPath>
</defs>
</svg>
