<svg width="18" height="18" viewBox="0 0 18 18" fill="none" xmlns="http://www.w3.org/2000/svg">
<g clip-path="url(#clip0_1_357)">
<path d="M3.54076 9.66077C3.08101 10.5645 3.60301 10.9965 4.79401 11.7345C5.80651 12.36 7.20526 12.5888 8.10376 12.6803C7.73551 13.0343 9.42301 11.4113 4.56301 16.086C3.53251 17.0738 5.19151 18.6585 6.22126 17.6918L9.00901 15.003C10.0763 16.0298 11.0993 17.0138 11.7968 17.6955C12.8273 18.666 14.4855 17.0948 13.4663 16.0898C13.3898 16.017 9.68851 12.4665 9.91426 12.684C10.824 12.5925 12.2018 12.3503 13.2023 11.7383L13.2015 11.7375C14.3925 10.9958 14.9145 10.5645 14.4615 9.66077C14.1878 9.14777 13.4498 8.71877 12.4673 9.46052C12.4673 9.46052 11.1405 10.4768 9.00076 10.4768C6.86026 10.4768 5.53426 9.46052 5.53426 9.46052C4.55251 8.71502 3.81151 9.14777 3.54076 9.66077Z" fill="#E08641"/>
<path d="M9.001 9.10649C11.6095 9.10649 13.7395 7.06799 13.7395 4.55849C13.7395 2.03849 11.6095 -7.62939e-06 9.001 -7.62939e-06C6.39175 -7.62939e-06 4.26175 2.03849 4.26175 4.55849C4.26175 7.06799 6.39175 9.10649 9.001 9.10649ZM9.001 2.30924C10.2827 2.30924 11.3282 3.31499 11.3282 4.55849C11.3282 5.79149 10.2827 6.79724 9.001 6.79724C7.71925 6.79724 6.67375 5.79149 6.67375 4.55849C6.673 3.31424 7.7185 2.30924 9.001 2.30924Z" fill="#E08641"/>
</g>
<defs>
<clipPath id="clip0_1_357">
<rect width="18" height="18" fill="white"/>
</clipPath>
</defs>
</svg>
