<svg width="19" height="19" viewBox="0 0 19 19" fill="none" xmlns="http://www.w3.org/2000/svg">
<g clip-path="url(#clip0_1_345)">
<path fill-rule="evenodd" clip-rule="evenodd" d="M16.3521 10.9605C16.9823 11.5759 17.6476 12.1548 18.2128 12.8322C18.4625 13.1332 18.6989 13.4438 18.8798 13.7932C19.136 14.2898 18.9039 14.8363 18.4587 14.8659L15.6907 14.8647C14.9768 14.9239 14.4073 14.6365 13.9284 14.1484C13.5452 13.758 13.1903 13.3426 12.8218 12.9391C12.6707 12.7741 12.5126 12.6189 12.3237 12.4963C11.9458 12.251 11.6178 12.3261 11.4019 12.7202C11.182 13.121 11.1321 13.5649 11.1105 14.0116C11.0808 14.6634 10.8838 14.8348 10.2291 14.8646C8.82987 14.9306 7.50194 14.7189 6.26834 14.0131C5.18075 13.3908 4.33737 12.5123 3.60331 11.5178C2.17406 9.58129 1.07954 7.45337 0.0958344 5.26584C-0.125591 4.77298 0.0363423 4.50842 0.580136 4.49905C1.48313 4.48151 2.386 4.48276 3.29005 4.49781C3.65706 4.50318 3.90002 4.71368 4.04172 5.06039C4.53027 6.26166 5.12806 7.40455 5.87842 8.46393C6.07825 8.74597 6.28201 9.02801 6.57217 9.22652C6.89316 9.44633 7.13756 9.37348 7.28857 9.0159C7.38439 8.78917 7.42634 8.54496 7.44794 8.30212C7.51948 7.46667 7.52891 6.63266 7.40343 5.80014C7.3264 5.28057 7.03374 4.94422 6.5153 4.84589C6.25073 4.79577 6.29012 4.69732 6.41822 4.54631C6.64071 4.28587 6.84996 4.12375 7.26709 4.12375H10.3953C10.8878 4.22095 10.9972 4.44218 11.0646 4.93772L11.0673 8.41255C11.0619 8.60439 11.1631 9.17365 11.5086 9.30062C11.7852 9.39102 11.9675 9.16978 12.1334 8.99442C12.8824 8.19949 13.4169 7.26004 13.8945 6.28725C14.1064 5.85951 14.2887 5.41528 14.4653 4.97143C14.5961 4.64207 14.8014 4.48001 15.1724 4.48719L18.1832 4.48988C18.2724 4.48988 18.3628 4.49119 18.4492 4.50598C18.9566 4.59244 19.0956 4.81069 18.9389 5.3061C18.692 6.08337 18.2116 6.7311 17.7419 7.38183C17.2398 8.07657 16.7029 8.74753 16.2049 9.44639C15.7475 10.0846 15.7838 10.4063 16.3521 10.9605Z" fill="#597DA3"/>
</g>
<defs>
<clipPath id="clip0_1_345">
<rect width="19" height="19" fill="white"/>
</clipPath>
</defs>
</svg>
