<svg width="18" height="18" viewBox="0 0 18 18" fill="none" xmlns="http://www.w3.org/2000/svg">
<g clip-path="url(#clip0_1_382)">
<path d="M16.8882 4.64886L16.8023 4.5C15.2437 1.81274 12.3371 0 9.01318 0C5.68909 0 2.78247 1.81274 1.22406 4.5L1.13818 4.64886C0.537048 5.73267 0.154541 6.95288 0.046875 8.25V9.75C0.154541 11.0471 0.537048 12.2673 1.13818 13.3508L1.22406 13.5C2.78247 16.1873 5.68909 18 9.01318 18C12.3371 18 15.2437 16.1873 16.8023 13.5L16.8882 13.3508C17.4893 12.267 17.8718 11.0471 17.9793 9.75V8.25C17.8718 6.95288 17.4893 5.73267 16.8882 4.64886ZM13.4978 8.25C13.4681 7.4621 13.3923 6.7088 13.2746 6H15.8824C16.1898 6.70129 16.3958 7.45679 16.4749 8.25H13.4978ZM9.01318 16.5C8.16522 16.5 7.25958 15.3446 6.66742 13.5H11.3591C10.7666 15.3446 9.86096 16.5 9.01318 16.5ZM6.28656 12C6.15454 11.3051 6.06519 10.5498 6.0304 9.75H11.9958C11.961 10.5498 11.8718 11.3051 11.7398 12H6.28656ZM6.0304 8.25C6.06519 7.4502 6.15454 6.69489 6.28656 6H11.7398C11.8718 6.69489 11.961 7.4502 11.9958 8.25H6.0304ZM9.01318 1.5C9.86096 1.5 10.7666 2.65576 11.3588 4.5H6.66742C7.25958 2.65576 8.16522 1.5 9.01318 1.5ZM14.9989 4.5H12.9472C12.6942 3.58502 12.3638 2.77881 11.9711 2.11011C13.1783 2.63068 14.217 3.46271 14.9989 4.5ZM6.05548 2.11011C5.66254 2.77881 5.33221 3.58502 5.07898 4.5H3.02747C3.80933 3.46271 4.84808 2.63068 6.05548 2.11011ZM2.1438 6H4.75159C4.63422 6.7088 4.55804 7.4621 4.52856 8.25H1.55109C1.63019 7.45679 1.836 6.70129 2.1438 6ZM4.52856 9.75C4.55804 10.5379 4.63385 11.2912 4.75159 12H2.1438C1.83636 11.2987 1.63055 10.5432 1.55145 9.75H4.52856ZM3.02747 13.5H5.07898C5.33221 14.415 5.66254 15.2212 6.05511 15.8899C4.84808 15.3693 3.80933 14.5373 3.02747 13.5ZM11.9707 15.8899C12.3638 15.2212 12.6942 14.415 12.9468 13.5H14.9985C14.217 14.5373 13.1783 15.3693 11.9707 15.8899ZM15.8828 12H13.275C13.3923 11.2912 13.4685 10.5379 13.4982 9.75H16.4756C16.3962 10.5432 16.1902 11.2987 15.8828 12Z" fill="#6A6E72"/>
</g>
<defs>
<clipPath id="clip0_1_382">
<rect width="18" height="18" fill="white"/>
</clipPath>
</defs>
</svg>
