<svg width="18" height="18" viewBox="0 0 18 18" fill="none" xmlns="http://www.w3.org/2000/svg">
<path d="M17.2984 3.75358C16.6487 2.98121 15.4491 2.66615 13.1581 2.66615H4.84177C2.49834 2.66615 1.27841 3.00153 0.631103 3.82384C0 4.6256 0 5.80692 0 7.4419V10.5582C0 13.7256 0.7488 15.3339 4.84177 15.3339H13.1581C15.1449 15.3339 16.2458 15.0558 16.958 14.3742C17.6884 13.6752 18 12.534 18 10.5582V7.4419C18 5.71768 17.9512 4.52938 17.2984 3.75358ZM11.5561 9.43026L7.77966 11.4039C7.69523 11.4481 7.60291 11.47 7.5107 11.47C7.4063 11.47 7.30214 11.4418 7.20987 11.386C7.03614 11.2807 6.93006 11.0924 6.93006 10.8893V6.95462C6.93006 6.75186 7.03585 6.56373 7.20923 6.4584C7.38267 6.35308 7.59838 6.34588 7.77832 6.43936L11.5547 8.40031C11.7469 8.50007 11.8675 8.69842 11.8678 8.91482C11.868 9.1314 11.7479 9.33004 11.5561 9.43026Z" fill="#C4302B"/>
</svg>
