<svg width="37" height="37" viewBox="0 0 37 37" fill="none" xmlns="http://www.w3.org/2000/svg">
<circle cx="18.75" cy="18.25" r="18.0833" fill="white"/>
<path fill-rule="evenodd" clip-rule="evenodd" d="M26.2983 12.6584C26.7545 12.2034 26.7545 11.4638 26.2983 11.0088C25.8433 10.5526 25.1048 10.5526 24.6486 11.0088L18.904 16.7534L13.1581 11.0088C12.7031 10.5526 11.9635 10.5526 11.5085 11.0088C11.0523 11.4638 11.0523 12.2034 11.5085 12.6584L17.2531 18.4043L11.5085 24.1489C11.0523 24.6051 11.0523 25.3436 11.5085 25.7986C11.9635 26.2548 12.7031 26.2548 13.1581 25.7986L18.904 20.0539L24.6486 25.7986C25.1048 26.2548 25.8433 26.2548 26.2983 25.7986C26.7545 25.3436 26.7545 24.6051 26.2983 24.1489L20.5536 18.4043L26.2983 12.6584Z" fill="#6A6E72"/>
</svg>
